<?xml version="1.0" encoding="UTF-8"?>
<svg version="1.1" xmlns="http://www.w3.org/2000/svg" width="64" height="64">
<path d="M0 0 C0.35520495 2.50832297 0.51584855 4.7646128 0.5390625 7.28125 C0.55141937 8.0093689 0.56377625 8.73748779 0.57650757 9.4876709 C0.59610424 11.03434202 0.60731129 12.58113845 0.61083984 14.12792969 C0.62479169 16.46510521 0.6919037 18.79673167 0.76171875 21.1328125 C0.88481414 29.48103995 0.43732812 35.3171043 -5.02075195 42.07373047 C-9.93892496 46.86025878 -15.094794 50.25230671 -22.0625 50.75 C-28.90773755 50.26718544 -33.62017617 46.66558129 -38.08203125 41.66796875 C-42.57997153 35.99744933 -44.15021195 32.83103551 -44.09765625 25.5859375 C-44.0962413 24.85629791 -44.09482635 24.12665833 -44.09336853 23.37490845 C-44.08776531 21.04156415 -44.07521235 18.70831536 -44.0625 16.375 C-44.05748541 14.79427222 -44.05292243 13.21354293 -44.04882812 11.6328125 C-44.03779484 7.75517146 -44.02052811 3.87760193 -44 0 C-42.41925436 -0.81752303 -40.83528777 -1.62881997 -39.25 -2.4375 C-38.36828125 -2.88996094 -37.4865625 -3.34242188 -36.578125 -3.80859375 C-25.19447799 -9.0692185 -10.16857273 -6.77904849 0 0 Z " fill="#647D90" transform="translate(54,10)"/>
<path d="M0 0 C0.29296875 2.8203125 0.29296875 2.8203125 0.1875 6.125 C0.14689453 7.76855469 0.14689453 7.76855469 0.10546875 9.4453125 C0.07066406 10.28835937 0.03585938 11.13140625 0 12 C-1.41750563 11.88490339 -2.83401169 11.75746342 -4.25 11.625 C-5.03890625 11.55539063 -5.8278125 11.48578125 -6.640625 11.4140625 C-9.085877 10.98492887 -10.84836903 10.21399362 -13 9 C-13 8.34 -13 7.68 -13 7 C-14.32 7.33 -15.64 7.66 -17 8 C-17 7.01 -17 6.02 -17 5 C-18.093125 5.185625 -19.18625 5.37125 -20.3125 5.5625 C-24 6 -24 6 -27 5 C-27 5.99 -27 6.98 -27 8 C-28.65 7.67 -30.3 7.34 -32 7 C-31.67 7.99 -31.34 8.98 -31 10 C-35.88873482 11.56439514 -38.60722586 12 -44 12 C-44 8.04 -44 4.08 -44 0 C-29.59603805 -7.39150679 -14.24638224 -9.49758816 0 0 Z " fill="#8C7C83" transform="translate(54,10)"/>
<path d="M0 0 C3.3 0 6.6 0 10 0 C10.33 0.66 10.66 1.32 11 2 C12.32 2 13.64 2 15 2 C15 2.66 15 3.32 15 4 C20.94 5.485 20.94 5.485 27 7 C27 8.32 27 9.64 27 11 C26.12988281 10.85691406 26.12988281 10.85691406 25.2421875 10.7109375 C20.14976565 9.98825057 16.88757878 10.13806523 12 12 C11.01 11.67 10.02 11.34 9 11 C9.51691406 12.20398438 10.03382812 13.40796875 10.56640625 14.6484375 C11.23217857 16.22378608 11.89752099 17.79931639 12.5625 19.375 C13.07586914 20.56609375 13.07586914 20.56609375 13.59960938 21.78125 C13.91865234 22.54179688 14.23769531 23.30234375 14.56640625 24.0859375 C15.01415405 25.1385376 15.01415405 25.1385376 15.47094727 26.21240234 C16 28 16 28 15 30 C14.37351562 29.0615625 13.74703125 28.123125 13.1015625 27.15625 C12.2763988 25.93725817 11.45085847 24.71852124 10.625 23.5 C10.2125 22.87996094 9.8 22.25992188 9.375 21.62109375 C8.30100332 20.04474379 7.15511468 18.51791243 6 17 C5.34 17 4.68 17 4 17 C2.41873729 19.28634067 0.94264529 21.56612299 -0.5 23.9375 C-4.7431338 30.8715669 -4.7431338 30.8715669 -7 32 C-4.66062389 24.33204498 -1.45231194 17.22862726 2 10 C1.05125 10.350625 0.1025 10.70125 -0.875 11.0625 C-4 12 -4 12 -6 11 C-7.87379605 10.92966231 -9.75001102 10.9156978 -11.625 10.9375 C-13.12933594 10.95103516 -13.12933594 10.95103516 -14.6640625 10.96484375 C-15.82035156 10.98224609 -15.82035156 10.98224609 -17 11 C-17 9.68 -17 8.36 -17 7 C-13.04 6.01 -9.08 5.02 -5 4 C-5 3.34 -5 2.68 -5 2 C-3.35 2.33 -1.7 2.66 0 3 C0 2.01 0 1.02 0 0 Z " fill="#71897A" transform="translate(27,15)"/>
<path d="M0 0 C2.23560743 0.53962938 3.62549194 0.04877554 5.8125 -0.5625 C4.17291242 4.67022633 2.42297965 9.58946636 -0.1875 14.4375 C-1.5075 13.7775 -2.8275 13.1175 -4.1875 12.4375 C-4.21465383 14.18741334 -4.23396551 15.93744945 -4.25 17.6875 C-4.26160156 18.66203125 -4.27320313 19.6365625 -4.28515625 20.640625 C-4.19945577 23.09508678 -3.89456066 25.09918914 -3.1875 27.4375 C-6.1875 27.4375 -6.1875 27.4375 -8.01171875 25.84765625 C-14.45834493 17.72517756 -13.90829124 10.29975478 -13.1875 0.4375 C-8.79735543 -0.77556626 -4.4601628 -1.14689901 0 0 Z " fill="#929298" transform="translate(23.1875,25.5625)"/>
<path d="M0 0 C1.22589844 0.29197266 1.22589844 0.29197266 2.4765625 0.58984375 C3.41628906 0.82380859 3.41628906 0.82380859 4.375 1.0625 C4.51099004 3.91829076 4.60954826 6.76751175 4.6875 9.625 C4.72939453 10.42486328 4.77128906 11.22472656 4.81445312 12.04882812 C4.92140309 17.28937644 4.08580027 20.45273636 0.94604492 24.66772461 C-0.625 26.0625 -0.625 26.0625 -5.625 28.0625 C-4.965 24.4325 -4.305 20.8025 -3.625 17.0625 C-2.965 17.0625 -2.305 17.0625 -1.625 17.0625 C-2.285 15.7425 -2.945 14.4225 -3.625 13.0625 C-4.285 13.0625 -4.945 13.0625 -5.625 13.0625 C-5.955 13.7225 -6.285 14.3825 -6.625 15.0625 C-7.285 15.0625 -7.945 15.0625 -8.625 15.0625 C-9.46526396 13.29494474 -10.29698722 11.52332737 -11.125 9.75 C-11.5890625 8.76386719 -12.053125 7.77773438 -12.53125 6.76171875 C-13.625 4.0625 -13.625 4.0625 -13.625 1.0625 C-12.51125 0.918125 -11.3975 0.77375 -10.25 0.625 C-2.42574257 -0.58910891 -2.42574257 -0.58910891 0 0 Z " fill="#9B888C" transform="translate(49.625,24.9375)"/>
<path d="M0 0 C1.03125 0.391875 2.0625 0.78375 3.125 1.1875 C3.74375 1.455625 4.3625 1.72375 5 2 C5 3.65 5 5.3 5 7 C3.58249437 6.88490339 2.16598831 6.75746342 0.75 6.625 C-0.03890625 6.55539063 -0.8278125 6.48578125 -1.640625 6.4140625 C-4.085877 5.98492887 -5.84836903 5.21399362 -8 4 C-8 3.34 -8 2.68 -8 2 C-9.32 2.33 -10.64 2.66 -12 3 C-12 2.01 -12 1.02 -12 0 C-13.093125 0.185625 -14.18625 0.37125 -15.3125 0.5625 C-19 1 -19 1 -22 0 C-22 0.99 -22 1.98 -22 3 C-23.65 2.67 -25.3 2.34 -27 2 C-26.67 2.99 -26.34 3.98 -26 5 C-30.53701494 6.45184478 -34.18061476 7.23509196 -39 7 C-38.9375 4.6875 -38.9375 4.6875 -38 2 C-35.5684729 0.66017895 -33.60575104 -0.18729012 -31 -1 C-29.80375 -1.391875 -28.6075 -1.78375 -27.375 -2.1875 C-18.01449612 -4.32808035 -8.89394671 -3.38895739 0 0 Z " fill="#CB7F4C" transform="translate(49,15)"/>
<path d="M0 0 C0.99 0.33 1.98 0.66 3 1 C3.33 5.29 3.66 9.58 4 14 C6.64 14.33 9.28 14.66 12 15 C12 15.66 12 16.32 12 17 C10.58461283 17.33872513 9.16762037 17.67074624 7.75 18 C6.96109375 18.185625 6.1721875 18.37125 5.359375 18.5625 C1.36881764 19.3024709 -1.553797 18.9784812 -5.25 17.5 C-5.95640625 17.2215625 -6.6628125 16.943125 -7.390625 16.65625 C-7.92171875 16.4396875 -8.4528125 16.223125 -9 16 C-7.51637716 9.73581469 -3.75837844 5.08486495 0 0 Z " fill="#4BB2D8" transform="translate(31,31)"/>
<path d="M0 0 C0.33 0.66 0.66 1.32 1 2 C2.32 2 3.64 2 5 2 C5.33 1.34 5.66 0.68 6 0 C5.94070312 0.70382813 5.88140625 1.40765625 5.8203125 2.1328125 C6.04183819 5.66759201 7.19030807 7.77162014 8.875 10.875 C11.16239471 15.24478706 12.90909741 19.20002859 14 24 C10.32512575 20.7491497 7.93733974 16.9563488 5.3671875 12.828125 C4.91601562 12.22484375 4.46484375 11.6215625 4 11 C3.34 11 2.68 11 2 11 C0.41873729 13.28634067 -1.05735471 15.56612299 -2.5 17.9375 C-6.7431338 24.8715669 -6.7431338 24.8715669 -9 26 C-7.41546605 20.91281204 -5.65280699 16.13220754 -3.375 11.3125 C-1.60511252 7.52823608 -0.34171157 4.21444271 0 0 Z " fill="#292230" transform="translate(29,21)"/>
<path d="M0 0 C1.65 0 3.3 0 5 0 C5 0.99 5 1.98 5 3 C8.63 3.33 12.26 3.66 16 4 C13.03 3.01 10.06 2.02 7 1 C7 0.67 7 0.34 7 0 C13.84778887 -0.50724362 18.83784126 1.00901067 25 4 C26 5 26 5 26.0625 8.5625 C26.041875 9.696875 26.02125 10.83125 26 12 C22.53978295 11.34031833 19.14378105 10.56997496 15.75 9.625 C14.87859375 9.39039063 14.0071875 9.15578125 13.109375 8.9140625 C12.41328125 8.61242188 11.7171875 8.31078125 11 8 C10.67 7.01 10.34 6.02 10 5 C7.03 4.67 4.06 4.34 1 4 C0.67 2.68 0.34 1.36 0 0 Z " fill="#979297" transform="translate(28,5)"/>
<path d="M0 0 C0.66 0 1.32 0 2 0 C2.33 1.32 2.66 2.64 3 4 C3.66 3.01 4.32 2.02 5 1 C5.99 1 6.98 1 8 1 C7.18754124 12.0109542 7.18754124 12.0109542 5 16 C4.34 16.33 3.68 16.66 3 17 C4.98 19.97 6.96 22.94 9 26 C8.67 26.66 8.34 27.32 8 28 C6.85204994 26.5433323 5.70670581 25.08461063 4.5625 23.625 C3.92441406 22.81289063 3.28632813 22.00078125 2.62890625 21.1640625 C-0.49883063 17.0087478 -0.11550444 13.39818959 -0.0625 8.375 C-0.05798828 7.57320312 -0.05347656 6.77140625 -0.04882812 5.9453125 C-0.03703168 3.96350994 -0.01909605 1.98174567 0 0 Z " fill="#9B878D" transform="translate(10,26)"/>
<path d="M0 0 C1.32 1.32 2.64 2.64 4 4 C3.34 5.65 2.68 7.3 2 9 C4.97 9.99 7.94 10.98 11 12 C7.8035914 13.06546953 5.34252724 13.07427838 2 13 C2 13.66 2 14.32 2 15 C3.66666667 15.33333333 5.33333333 15.66666667 7 16 C8.66666667 16.33333333 10.33333333 16.66666667 12 17 C12 17.66 12 18.32 12 19 C15.96 18.505 15.96 18.505 20 18 C18.68 18.33 17.36 18.66 16 19 C16 19.66 16 20.32 16 21 C14.35 21 12.7 21 11 21 C11 20.34 11 19.68 11 19 C9.35 19 7.7 19 6 19 C6 18.34 6 17.68 6 17 C4.02 17.33 2.04 17.66 0 18 C0.33 16.35 0.66 14.7 1 13 C0.34 12.67 -0.32 12.34 -1 12 C-1.02687279 10.18757948 -1.04633715 8.37504767 -1.0625 6.5625 C-1.07410156 5.55316406 -1.08570312 4.54382812 -1.09765625 3.50390625 C-1 1 -1 1 0 0 Z " fill="#677687" transform="translate(19,37)"/>
<path d="M0 0 C0.66 0.66 1.32 1.32 2 2 C4.60280568 1.67958603 4.60280568 1.67958603 7 1 C7.33 2.32 7.66 3.64 8 5 C7.09636719 5.27714844 6.19273438 5.55429688 5.26171875 5.83984375 C4.08222656 6.20207031 2.90273438 6.56429688 1.6875 6.9375 C0.51574219 7.29714844 -0.65601563 7.65679687 -1.86328125 8.02734375 C-3.91553977 8.66372279 -5.96160137 9.32053379 -8 10 C-8.43489791 4.69424556 -8.43489791 4.69424556 -8 2 C-4.92424881 -0.74323755 -3.96809386 -1.32269795 0 0 Z " fill="#9E979C" transform="translate(18,8)"/>
<path d="M0 0 C3.3 0 6.6 0 10 0 C10.33 0.66 10.66 1.32 11 2 C12.32 2 13.64 2 15 2 C15 2.66 15 3.32 15 4 C15.99 4.66 16.98 5.32 18 6 C13.61638692 7.28929796 11.2452221 6.44337551 7 5 C1.65348406 4.60649526 1.65348406 4.60649526 -3 7 C-5.6875 6.625 -5.6875 6.625 -8 6 C-7.01 5.34 -6.02 4.68 -5 4 C-5 3.34 -5 2.68 -5 2 C-3.35 2.33 -1.7 2.66 0 3 C0 2.01 0 1.02 0 0 Z " fill="#372724" transform="translate(27,15)"/>
<path d="M0 0 C6.45892714 -0.40368295 11.06108578 0.4084738 17 3 C17 4.65 17 6.3 17 8 C15.58249437 7.88490339 14.16598831 7.75746342 12.75 7.625 C11.96109375 7.55539063 11.1721875 7.48578125 10.359375 7.4140625 C7.914123 6.98492887 6.15163097 6.21399362 4 5 C4 4.34 4 3.68 4 3 C2.68 3.33 1.36 3.66 0 4 C0 2.68 0 1.36 0 0 Z " fill="#DB994A" transform="translate(37,14)"/>
<path d="M0 0 C2.28504909 0.16618539 3.97069514 -0.17367543 6.1484375 -0.84375 C6.1484375 0.47625 6.1484375 1.79625 6.1484375 3.15625 C4.17097147 3.88705266 2.16771261 4.55046747 0.1484375 5.15625 C-0.5115625 4.82625 -1.1715625 4.49625 -1.8515625 4.15625 C-3.72535855 4.08591231 -5.60157352 4.0719478 -7.4765625 4.09375 C-8.98089844 4.10728516 -8.98089844 4.10728516 -10.515625 4.12109375 C-11.67191406 4.13849609 -11.67191406 4.13849609 -12.8515625 4.15625 C-12.8515625 2.83625 -12.8515625 1.51625 -12.8515625 0.15625 C-8.29525232 -0.8952062 -4.55526678 -0.70326926 0 0 Z " fill="#6B867B" transform="translate(22.8515625,21.84375)"/>
<path d="M0 0 C1.32 0 2.64 0 4 0 C4 0.66 4 1.32 4 2 C5.65 2 7.3 2 9 2 C9 2.66 9 3.32 9 4 C10.65 4 12.3 4 14 4 C14 3.34 14 2.68 14 2 C15.32 2 16.64 2 18 2 C18 1.34 18 0.68 18 0 C19.32 0 20.64 0 22 0 C22 0.99 22 1.98 22 3 C16.76046562 6.30917961 12.03579341 6.90299272 6 6 C3.34979218 4.91261455 1.37182339 3.6499641 -1 2 C-0.67 1.34 -0.34 0.68 0 0 Z " fill="#95858D" transform="translate(21,54)"/>
<path d="M0 0 C1.2684375 0.13535156 1.2684375 0.13535156 2.5625 0.2734375 C4.76573235 0.5912114 6.85455972 1.03897696 9 1.625 C9 2.945 9 4.265 9 5.625 C1.88929109 7.20515754 -2.49928869 5.72882323 -9 2.625 C-9 1.965 -9 1.305 -9 0.625 C-5.81775863 -0.36208413 -3.30004797 -0.37226151 0 0 Z " fill="#6E8E9F" transform="translate(30,49.375)"/>
<path d="M0 0 C0 0.66 0 1.32 0 2 C2.97 2.33 5.94 2.66 9 3 C9 3.66 9 4.32 9 5 C4.71 5 0.42 5 -4 5 C-4.33 4.34 -4.66 3.68 -5 3 C-6.65 3.33 -8.3 3.66 -10 4 C-10.33 3.01 -10.66 2.02 -11 1 C-3.375 -1.125 -3.375 -1.125 0 0 Z " fill="#64646D" transform="translate(29,7)"/>
<path d="M0 0 C0.33 0 0.66 0 1 0 C1.1799928 5.21979128 0.97094808 9.07262981 -1 14 C-3.31 14 -5.62 14 -8 14 C-5.65014982 9.07531399 -3.2075 4.42413794 0 0 Z " fill="#8D9097" transform="translate(30,32)"/>
<path d="M0 0 C2.125 0.9375 2.125 0.9375 4 2 C3.01 2.33 2.02 2.66 1 3 C1 4.32 1 5.64 1 7 C-1.64 7.33 -4.28 7.66 -7 8 C-9 5 -9 5 -9 2 C-7.88625 1.855625 -6.7725 1.71125 -5.625 1.5625 C-2.17857953 1.21627965 -2.17857953 1.21627965 0 0 Z " fill="#959699" transform="translate(45,24)"/>
<path d="M0 0 C3.875 1.75 3.875 1.75 5 4 C4.91255632 5.87862875 4.75824458 7.75455181 4.5625 9.625 C4.46066406 10.62789062 4.35882813 11.63078125 4.25390625 12.6640625 C4.17011719 13.43492188 4.08632813 14.20578125 4 15 C1 13 1 13 0.3125 10.875 C-0.08477078 7.22010878 -0.06231163 3.67638613 0 0 Z " fill="#826A54" transform="translate(47,27)"/>
<path d="M0 0 C0.99 0 1.98 0 3 0 C2.22095672 10.55808656 2.22095672 10.55808656 0 15 C-0.66 15 -1.32 15 -2 15 C-2.05406122 13.06280622 -2.09282025 11.12518079 -2.125 9.1875 C-2.14820313 8.10855469 -2.17140625 7.02960937 -2.1953125 5.91796875 C-2 3 -2 3 0 0 Z " fill="#9B734E" transform="translate(15,27)"/>
<path d="M0 0 C0.33 0 0.66 0 1 0 C1 1.98 1 3.96 1 6 C1.99 5.67 2.98 5.34 4 5 C4 5.66 4 6.32 4 7 C4.99 7.33 5.98 7.66 7 8 C6.979375 8.7425 6.95875 9.485 6.9375 10.25 C6.99328688 12.70462279 7.3069904 14.66109261 8 17 C0.12546468 9.55111524 0.12546468 9.55111524 -0.1875 3.1875 C-0.125625 2.135625 -0.06375 1.08375 0 0 Z " fill="#96969D" transform="translate(12,36)"/>
<path d="M0 0 C0 1.32 0 2.64 0 4 C-0.66 4 -1.32 4 -2 4 C-2 4.66 -2 5.32 -2 6 C-4.64 6.33 -7.28 6.66 -10 7 C-9.9375 5.1875 -9.9375 5.1875 -9 3 C-3.10714286 0 -3.10714286 0 0 0 Z " fill="#EFA542" transform="translate(21,15)"/>
<path d="M0 0 C1.4540625 0.0309375 1.4540625 0.0309375 2.9375 0.0625 C3.2675 2.3725 3.5975 4.6825 3.9375 7.0625 C2.6175 6.4025 1.2975 5.7425 -0.0625 5.0625 C-0.3925 5.7225 -0.7225 6.3825 -1.0625 7.0625 C-1.7225 7.0625 -2.3825 7.0625 -3.0625 7.0625 C-3.44383299 5.0710944 -3.77575582 3.06970923 -4.0625 1.0625 C-3.0625 0.0625 -3.0625 0.0625 0 0 Z " fill="#979499" transform="translate(44.0625,32.9375)"/>
<path d="M0 0 C2.89922954 0.44881311 4.89049405 1.55546817 7.1953125 3.33984375 C6.2053125 3.83484375 6.2053125 3.83484375 5.1953125 4.33984375 C2.5703125 3.40234375 2.5703125 3.40234375 0.1953125 2.33984375 C0.1953125 2.99984375 0.1953125 3.65984375 0.1953125 4.33984375 C-1.1246875 4.33984375 -2.4446875 4.33984375 -3.8046875 4.33984375 C-3.8046875 3.67984375 -3.8046875 3.01984375 -3.8046875 2.33984375 C-6.1146875 2.99984375 -8.4246875 3.65984375 -10.8046875 4.33984375 C-7.7065775 0.02942984 -4.98553581 -0.20567392 0 0 Z " fill="#AD8757" transform="translate(33.8046875,18.66015625)"/>
<path d="M0 0 C2.96175123 0.61277612 4.38058783 1.25372522 7 3 C-2.41002278 6.25968109 -2.41002278 6.25968109 -7 7 C-7.33 6.34 -7.66 5.68 -8 5 C-7.01 4.67 -6.02 4.34 -5 4 C-5 3.34 -5 2.68 -5 2 C-3.35 2.33 -1.7 2.66 0 3 C0 2.01 0 1.02 0 0 Z " fill="#1C1419" transform="translate(27,15)"/>
<path d="M0 0 C0.66 0.33 1.32 0.66 2 1 C1.44010697 4.99012371 0.24330232 7.5255052 -2.0625 10.8125 C-2.88427734 11.99779297 -2.88427734 11.99779297 -3.72265625 13.20703125 C-4.14417969 13.79871094 -4.56570312 14.39039063 -5 15 C-5.33 14.34 -5.66 13.68 -6 13 C-5.10333658 10.75689987 -4.10853317 8.55245679 -3.0625 6.375 C-2.49660156 5.18648437 -1.93070313 3.99796875 -1.34765625 2.7734375 C-0.90292969 1.85820313 -0.45820313 0.94296875 0 0 Z " fill="#2F2937" transform="translate(26,32)"/>
<path d="M0 0 C0.66 0 1.32 0 2 0 C5.11450382 4.15267176 5.11450382 4.15267176 4.6875 7.3125 C4.460625 7.869375 4.23375 8.42625 4 9 C2.68 8.67 1.36 8.34 0 8 C0 5.36 0 2.72 0 0 Z " fill="#928E95" transform="translate(35,36)"/>
<path d="M0 0 C2 2 2 2 2.1953125 3.9453125 C2.13020833 5.96354167 2.06510417 7.98177083 2 10 C2.99 10 3.98 10 5 10 C5.66 9.34 6.32 8.68 7 8 C7.33 8.66 7.66 9.32 8 10 C8.99 10.33 9.98 10.66 11 11 C10.67 12.32 10.34 13.64 10 15 C9.67 14.34 9.34 13.68 9 13 C7.13690908 12.5720382 7.13690908 12.5720382 5 12.4375 C1.09589041 12.09589041 1.09589041 12.09589041 0 11 C-0.07226502 9.14712498 -0.0838122 7.29166122 -0.0625 5.4375 C-0.05347656 4.42558594 -0.04445312 3.41367187 -0.03515625 2.37109375 C-0.02355469 1.58863281 -0.01195312 0.80617187 0 0 Z " fill="#63727F" transform="translate(34,34)"/>
<path d="M0 0 C6.90352555 -0.51137226 11.74827614 1.13035626 18 4 C15 5 15 5 12.8125 4.0625 C12.214375 3.711875 11.61625 3.36125 11 3 C10.67 3.66 10.34 4.32 10 5 C9.34 4.34 8.68 3.68 8 3 C6.03309626 2.32707499 6.03309626 2.32707499 3.875 1.875 C2.59625 1.58625 1.3175 1.2975 0 1 C0 0.67 0 0.34 0 0 Z " fill="#91858D" transform="translate(35,5)"/>
<path d="M0 0 C-0.33 0.99 -0.66 1.98 -1 3 C-5.455 3.495 -5.455 3.495 -10 4 C-10.33 3.01 -10.66 2.02 -11 1 C-3.375 -1.125 -3.375 -1.125 0 0 Z " fill="#6C6C75" transform="translate(29,7)"/>
<path d="M0 0 C0.66 0.33 1.32 0.66 2 1 C2 1.99 2 2.98 2 4 C2.66 4.33 3.32 4.66 4 5 C2.7260411 7.03833424 1.38938077 9.03852126 0 11 C-0.66 11 -1.32 11 -2 11 C-1.34 7.37 -0.68 3.74 0 0 Z " fill="#98969A" transform="translate(46,42)"/>
<path d="M0 0 C1.32 0.33 2.64 0.66 4 1 C3.34 1 2.68 1 2 1 C2 2.98 2 4.96 2 7 C1.05125 7.12375 0.1025 7.2475 -0.875 7.375 C-4.08667191 7.71687177 -4.08667191 7.71687177 -6 10 C-6.33 8.68 -6.66 7.36 -7 6 C-4.36 5.67 -1.72 5.34 1 5 C0.67 3.35 0.34 1.7 0 0 Z " fill="#8D888C" transform="translate(45,26)"/>
<path d="M0 0 C1.62600941 0.0870005 3.25089678 0.1951781 4.875 0.3125 C5.77992187 0.37050781 6.68484375 0.42851563 7.6171875 0.48828125 C10 1 10 1 12 4 C10.56208484 3.85831863 9.1246763 3.71148957 7.6875 3.5625 C6.88699219 3.48128906 6.08648437 3.40007813 5.26171875 3.31640625 C3 3 3 3 0 2 C0 1.34 0 0.68 0 0 Z " fill="#65656D" transform="translate(33,6)"/>
<path d="M0 0 C0 0.99 0 1.98 0 3 C-3.3 2.67 -6.6 2.34 -10 2 C-10 1.34 -10 0.68 -10 0 C-6.42355152 -1.2380014 -3.66305234 -0.74926071 0 0 Z " fill="#7C919F" transform="translate(31,50)"/>
<path d="M0 0 C0.99 0.33 1.98 0.66 3 1 C3 3.64 3 6.28 3 9 C2.01 8.67 1.02 8.34 0 8 C0 5.36 0 2.72 0 0 Z " fill="#A07749" transform="translate(47,27)"/>
<path d="M0 0 C0.33 0 0.66 0 1 0 C1.125 6.75 1.125 6.75 0 9 C-0.99 9 -1.98 9 -3 9 C-3.625 7.125 -3.625 7.125 -4 5 C-3.34 4.34 -2.68 3.68 -2 3 C-1.67 3.33 -1.34 3.66 -1 4 C-0.67 2.68 -0.34 1.36 0 0 Z " fill="#8C8C8F" transform="translate(51,37)"/>
<path d="M0 0 C5.75 -0.125 5.75 -0.125 8 1 C8 2.32 8 3.64 8 5 C7.34 5 6.68 5 6 5 C6 4.01 6 3.02 6 2 C4.02 2.66 2.04 3.32 0 4 C0 2.68 0 1.36 0 0 Z " fill="#EBA647" transform="translate(37,14)"/>
<path d="M0 0 C0.66 1.32 1.32 2.64 2 4 C0.02 4.33 -1.96 4.66 -4 5 C-4.33 4.34 -4.66 3.68 -5 3 C-4.67 2.34 -4.34 1.68 -4 1 C-1.9375 0.375 -1.9375 0.375 0 0 Z " fill="#9F9397" transform="translate(24,9)"/>
<path d="M0 0 C0.99 0 1.98 0 3 0 C3.66 1.65 4.32 3.3 5 5 C3.0625 5.5625 3.0625 5.5625 1 6 C0 5 0 5 -0.0625 2.4375 C-0.041875 1.633125 -0.02125 0.82875 0 0 Z " fill="#4ABCE3" transform="translate(31,42)"/>
<path d="M0 0 C0.33 0 0.66 0 1 0 C1.07654536 4.51617599 1.10228696 8.59085217 0 13 C-0.33 13 -0.66 13 -1 13 C-1.22245393 11.39773045 -1.42746669 9.79303233 -1.625 8.1875 C-1.74101562 7.29417969 -1.85703125 6.40085937 -1.9765625 5.48046875 C-2 3 -2 3 0 0 Z " fill="#638093" transform="translate(30,32)"/>
<path d="M0 0 C0.33 0 0.66 0 1 0 C1 2.31 1 4.62 1 7 C1.66 7 2.32 7 3 7 C2.67 8.65 2.34 10.3 2 12 C1.34 12 0.68 12 0 12 C0 8.04 0 4.08 0 0 Z " fill="#806653" transform="translate(13,30)"/>
<path d="M0 0 C1.98 0 3.96 0 6 0 C5.34 1.32 4.68 2.64 4 4 C2.68 4 1.36 4 0 4 C0 2.68 0 1.36 0 0 Z " fill="#788577" transform="translate(10,22)"/>
<path d="M0 0 C0.33 0.66 0.66 1.32 1 2 C2.32 1.34 3.64 0.68 5 0 C4 3 4 3 1.9375 4.1875 C1.298125 4.455625 0.65875 4.72375 0 5 C0 4.34 0 3.68 0 3 C-1.32 2.67 -2.64 2.34 -4 2 C-2.68 1.34 -1.36 0.68 0 0 Z " fill="#7A747A" transform="translate(43,51)"/>
<path d="M0 0 C0.66 0 1.32 0 2 0 C2 0.66 2 1.32 2 2 C2.99 2 3.98 2 5 2 C5.33 3.98 5.66 5.96 6 8 C1.125 3.375 1.125 3.375 0 0 Z " fill="#A09DA0" transform="translate(14,45)"/>
<path d="M0 0 C2.50357861 0.8345262 4.66785852 1.79371992 7 3 C4.36 3.33 1.72 3.66 -1 4 C-0.67 2.68 -0.34 1.36 0 0 Z " fill="#CD9945" transform="translate(12,18)"/>
</svg>
